# xmcd
#
# Track frame offsets: 
#        188
#        31333
#        56060
#        73285
#        103118
#        124875
#        142660
#        161293
#        177598
#        200888
#
# Disc length: 2913 seconds
#
# Revision: 17
# Processed by: cddbd v1.5.2PL0 Copyright (c) Steve Scherf et al.
# Submitted via: ExactAudioCopy v0.99pb4
#
DISCID=950b5f0a
DTITLE=Chris Rea - Espresso Logic
DYEAR=1993
DGENRE=Rock
TTITLE0=Espresso Logic
TTITLE1=Red
TTITLE2=Soup Of The Day
TTITLE3=Johnny Needs A Fast Car
TTITLE4=Between The Devil And The Deep Blue Sea
TTITLE5=Julia
TTITLE6=Summer Love
TTITLE7=New Way
TTITLE8=Stop
TTITLE9=She Closed Her Eyes
EXTD=Rea, Chris - Espresso Logic\n YEAR: 1993
EXTT0=
EXTT1=
EXTT2=
EXTT3=
EXTT4=
EXTT5=
EXTT6=
EXTT7=
EXTT8=
EXTT9=
PLAYORDER=
